<svg width="24" height="25" viewBox="0 0 24 25" fill="none" xmlns="http://www.w3.org/2000/svg">
<path d="M12.0765 3.49847H12.21C13.443 3.50297 19.6905 3.54797 21.375 4.00097C21.8842 4.13923 22.3483 4.40871 22.7207 4.78249C23.0932 5.15627 23.361 5.62125 23.4975 6.13097C23.649 6.70097 23.7555 7.45547 23.8275 8.23397L23.8425 8.38997L23.8755 8.77997L23.8875 8.93597C23.985 10.307 23.997 11.591 23.9985 11.8715V11.984C23.997 12.275 23.9835 13.646 23.8755 15.074L23.8635 15.2315L23.85 15.3875C23.775 16.2455 23.664 17.0975 23.4975 17.7245C23.361 18.2342 23.0932 18.6992 22.7207 19.073C22.3483 19.4467 21.8842 19.7162 21.375 19.8545C19.635 20.3225 13.0215 20.3555 12.105 20.357H11.892C11.4285 20.357 9.5115 20.348 7.5015 20.279L7.2465 20.27L7.116 20.264L6.8595 20.2535L6.603 20.243C4.938 20.1695 3.3525 20.051 2.622 19.853C2.11294 19.7149 1.64902 19.4456 1.27658 19.0721C0.904129 18.6986 0.636185 18.2339 0.4995 17.7245C0.333 17.099 0.222 16.2455 0.147 15.3875L0.135 15.23L0.123 15.074C0.0485451 14.0576 0.00752298 13.039 0 12.02L0 11.8355C0.003 11.513 0.015 10.3985 0.096 9.16847L0.1065 9.01397L0.111 8.93597L0.123 8.77997L0.156 8.38997L0.171 8.23397C0.243 7.45547 0.3495 6.69947 0.501 6.13097C0.637456 5.62125 0.905298 5.15627 1.27776 4.78249C1.65022 4.40871 2.11426 4.13923 2.6235 4.00097C3.354 3.80597 4.9395 3.68597 6.6045 3.61097L6.8595 3.60047L7.1175 3.59147L7.2465 3.58697L7.503 3.57647C8.93056 3.53058 10.3587 3.50508 11.787 3.49997L12.0765 3.49847ZM9.6 8.31347V15.5405L15.8355 11.9285L9.6 8.31347Z" fill="black"/>
</svg>
