<svg width="24" height="25" viewBox="0 0 24 25" fill="none" xmlns="http://www.w3.org/2000/svg">
<g clip-path="url(#clip0_3_53)">
<path d="M12 0.5C8.8174 0.5 5.76516 1.76428 3.51472 4.01472C1.26428 6.26516 0 9.3174 0 12.5C0 15.6826 1.26428 18.7348 3.51472 20.9853C5.76516 23.2357 8.8174 24.5 12 24.5C15.1826 24.5 18.2348 23.2357 20.4853 20.9853C22.7357 18.7348 24 15.6826 24 12.5C24 9.3174 22.7357 6.26516 20.4853 4.01472C18.2348 1.76428 15.1826 0.5 12 0.5ZM11.993 5.62C16.473 5.62 17.988 8.645 18.057 10.364H14.818C14.749 9.402 13.921 7.958 11.922 7.958C9.786 7.958 8.408 9.815 8.408 12.084C8.408 14.353 9.786 16.209 11.922 16.209C13.852 16.209 14.68 14.697 15.025 13.184H11.922V11.946H18.431V18.273H15.576V14.284C15.369 15.728 14.474 18.548 10.959 18.548C7.443 18.548 5.375 15.728 5.375 12.222C5.375 8.577 7.651 5.62 11.993 5.62Z" fill="black"/>
</g>
<defs>
<clipPath id="clip0_3_53">
<rect width="24" height="24" fill="white" transform="translate(0 0.5)"/>
</clipPath>
</defs>
</svg>
